<?xml version="1.0" standalone="no"?>
<!DOCTYPE svg PUBLIC "-//W3C//DTD SVG 20010904//EN"
 "http://www.w3.org/TR/2001/REC-SVG-20010904/DTD/svg10.dtd">
<svg version="1.0" xmlns="http://www.w3.org/2000/svg"
 width="139.000000pt" height="145.000000pt" viewBox="0 0 139.000000 145.000000"
 preserveAspectRatio="xMidYMid meet">

<g transform="translate(0.000000,145.000000) scale(0.100000,-0.100000)"
fill="000000" stroke="none">
<path d="M406 1051 c-195 -195 -277 -284 -273 -294 4 -11 22 -17 59 -19 l53
-3 2 -255 c3 -246 4 -256 24 -273 18 -15 44 -17 200 -17 172 0 179 -1 179 -20
0 -17 7 -20 45 -20 34 0 47 5 55 20 10 19 21 20 185 20 217 0 215 -1 215 120
0 73 3 84 30 121 40 55 48 114 23 170 -11 24 -27 50 -36 58 -10 8 -17 28 -17
47 l0 34 54 0 c85 0 81 17 -24 124 l-90 92 0 135 c0 93 -4 141 -13 153 -10 14
-26 16 -97 14 l-85 -3 -3 -49 -3 -48 -88 86 c-49 47 -95 86 -102 86 -8 0 -140
-126 -293 -279z m569 -21 l270 -270 -55 0 -55 0 -220 220 -220 220 -220 -220
-220 -220 -48 0 c-26 0 -47 3 -47 7 0 12 523 533 535 533 6 0 132 -121 280
-270z m85 78 l0 -122 -75 74 c-72 72 -75 76 -75 122 l0 48 75 0 75 0 0 -122z
m-143 -140 c193 -193 213 -216 213 -246 0 -29 -3 -33 -17 -27 -46 19 -98 16
-142 -7 -67 -35 -86 -66 -88 -150 l-1 -70 -128 -130 -127 -129 -169 3 c-137 2
-171 6 -178 18 -6 8 -10 127 -10 270 l0 255 212 212 c117 117 215 213 218 213
3 0 100 -96 217 -212z m205 -299 c39 -20 72 -79 72 -129 1 -55 -20 -90 -75
-128 -29 -20 -43 -23 -91 -19 -52 5 -58 3 -84 -24 -15 -16 -36 -29 -46 -29
-10 0 -56 -38 -103 -85 -90 -91 -125 -107 -125 -57 0 22 24 52 119 146 l119
119 -5 52 c-6 57 8 94 50 133 42 39 115 48 169 21z m8 -361 c0 -95 -6 -98
-187 -98 -89 0 -143 4 -143 10 0 13 37 50 49 50 5 0 13 9 16 20 3 11 15 20 25
20 10 0 35 15 54 33 34 30 41 32 111 32 l75 0 0 -67z"/>
<path d="M397 704 c-4 -4 -7 -72 -7 -151 l0 -143 155 0 156 0 -3 148 -3 147
-146 3 c-80 1 -148 -1 -152 -4z m141 -81 l3 -63 -61 0 -60 0 0 65 0 66 58 -3
57 -3 3 -62z m130 0 l3 -63 -61 0 -60 0 0 58 c0 32 3 62 7 66 4 4 30 6 58 4
l50 -3 3 -62z m-128 -133 l0 -60 -60 0 -60 0 0 60 0 60 60 0 60 0 0 -60z m130
0 l0 -60 -60 0 -60 0 0 60 0 60 60 0 60 0 0 -60z"/>
<path d="M1058 619 c-22 -12 -24 -62 -4 -78 26 -22 70 -9 81 23 8 24 6 31 -14
47 -26 21 -38 23 -63 8z m50 -43 c-2 -13 -10 -21 -23 -21 -23 0 -33 34 -14 45
20 13 40 -1 37 -24z"/>
<path d="M810 333 l-105 -108 108 105 c59 57 107 106 107 107 0 8 -13 -5 -110
-104z"/>
</g>
</svg>
